<svg width="415" height="701" viewBox="0 0 415 701" fill="none" xmlns="http://www.w3.org/2000/svg">
<g clip-path="url(#clip0_20_5)">
<g clip-path="url(#clip1_20_5)">
<g clip-path="url(#clip2_20_5)">
<g clip-path="url(#clip3_20_5)">
<g clip-path="url(#clip4_20_5)">
<g clip-path="url(#clip5_20_5)">
<g clip-path="url(#clip6_20_5)">
<g clip-path="url(#clip7_20_5)">
<g clip-path="url(#clip8_20_5)">
<g clip-path="url(#clip9_20_5)">
<path d="M142.669 566.758H1.15869V133.808H142.669V566.758ZM270.283 220.265H165.519V133.808H327.341L413.798 220.265V368.724L327.341 455.447H165.519V368.724H270.283V220.265Z" fill="black"/>
</g>
</g>
</g>
</g>
</g>
</g>
</g>
<path d="M1.11719 116.804V2.83398H413.839V116.804H374.795V41.8781H40.1613V116.804H1.11719ZM1.11719 583.763V697.733H413.839V583.763H374.795V658.689H40.1613V583.763H1.11719Z" fill="black"/>
</g>
</g>
</g>
<defs>
<clipPath id="clip0_20_5">
<rect width="413.956" height="700" fill="white" transform="translate(0.500183 0.283203)"/>
</clipPath>
<clipPath id="clip1_20_5">
<rect width="412.722" height="700.567" fill="white" transform="translate(1.11719)"/>
</clipPath>
<clipPath id="clip2_20_5">
<rect width="412.722" height="700.567" fill="white" transform="translate(1.11719)"/>
</clipPath>
<clipPath id="clip3_20_5">
<rect width="412.722" height="432.95" fill="white" transform="translate(1.11719 133.808)"/>
</clipPath>
<clipPath id="clip4_20_5">
<rect width="412.722" height="432.95" fill="white" transform="translate(1.11719 133.808)"/>
</clipPath>
<clipPath id="clip5_20_5">
<rect width="412.722" height="432.95" fill="white" transform="translate(1.11719 133.808)"/>
</clipPath>
<clipPath id="clip6_20_5">
<rect width="412.722" height="432.95" fill="white" transform="translate(1.11719 133.808)"/>
</clipPath>
<clipPath id="clip7_20_5">
<rect width="412.722" height="432.95" fill="white" transform="translate(1.11719 133.808)"/>
</clipPath>
<clipPath id="clip8_20_5">
<rect width="412.722" height="432.95" fill="white" transform="translate(1.11719 133.808)"/>
</clipPath>
<clipPath id="clip9_20_5">
<rect width="412.722" height="432.95" fill="white" transform="translate(1.11719 133.808)"/>
</clipPath>
</defs>
</svg>
